<svg id="visual" viewBox="0 0 900 600" width="900" height="600" xmlns="http://www.w3.org/2000/svg" xmlns:xlink="http://www.w3.org/1999/xlink" version="1.1"><rect x="0" y="0" width="900" height="600" fill="#001220"/><defs><linearGradient id="grad1_0" x1="33.3%" y1="0%" x2="100%" y2="100%"><stop offset="20%" stop-color="#001220" stop-opacity="1"/><stop offset="80%" stop-color="#001220" stop-opacity="1"/></linearGradient></defs><defs><linearGradient id="grad2_0" x1="0%" y1="0%" x2="66.7%" y2="100%"><stop offset="20%" stop-color="#001220" stop-opacity="1"/><stop offset="80%" stop-color="#001220" stop-opacity="1"/></linearGradient></defs><g transform="translate(900, 0)"><path d="M0 540.8C-24.5 496.5 -49.1 452.1 -78 442.2C-106.8 432.3 -140.1 456.9 -164.9 452.9C-189.6 449 -206 416.5 -230 398.4C-254 380.3 -285.5 376.5 -297 353.9C-308.4 331.3 -299.7 289.8 -330.9 277.7C-362.2 265.6 -433.4 282.9 -468.4 270.4C-503.3 257.9 -502 215.7 -492.4 179.2C-482.8 142.8 -465 112.1 -471.7 83.2C-478.4 54.3 -509.6 27.1 -540.8 0L0 0Z" fill="#834e00"/></g><g transform="translate(0, 600)"><path d="M0 -540.8C35.4 -550.8 70.9 -560.8 93.9 -532.6C117 -504.4 127.7 -437.9 150.5 -413.5C173.3 -389 208.2 -406.5 229 -396.6C249.8 -386.7 256.5 -349.4 280.9 -334.8C305.3 -320.2 347.6 -328.3 383 -321.4C418.5 -314.5 447.2 -292.5 452.9 -261.5C458.7 -230.5 441.4 -190.5 438.8 -159.7C436.3 -129 448.3 -107.6 467.8 -82.5C487.2 -57.4 514 -28.7 540.8 0L0 0Z" fill="#834e00"/></g></svg>